<svg xmlns="http://www.w3.org/2000/svg">
  <defs>
  <symbol id="icon-ball" viewBox="0 0 1200 1200">
  <svg xmlns="http://www.w3.org/2000/svg" xmlns:xlink="http://www.w3.org/1999/xlink" version="1.1" x="0px" y="0px" viewBox="0 0 98 122.5" style="enable-background:new 0 0 98 98;" xml:space="preserve"><style type="text/css">
	.st0{fill-rule:evenodd;clip-rule:evenodd;}
</style><path class="st0" d="M93.699,48.999c0,0.518-0.012,1.032-0.03,1.545c-14.19,5.64-30.914,8.621-48.418,8.621  c-8.814,0-17.542-0.777-25.846-2.28c-0.022-0.772-0.033-1.547-0.033-2.323c0-2.344,0.106-4.669,0.309-6.966  c9.852-1.038,19.615-8.234,29.07-15.209C60.716,23.56,72.024,15.22,82.456,19.391C89.447,27.282,93.699,37.653,93.699,48.999z   M19.558,60.043c0.247,3.628,0.742,7.199,1.472,10.674c6.857,1.031,12.795,4.129,19.032,7.386  c9.928,5.183,20.192,10.54,35.038,7.161c9.994-7.213,16.899-18.45,18.322-31.315c-14.245,5.433-30.846,8.298-48.172,8.298  C36.503,62.247,27.833,61.496,19.558,60.043z M55.147,87.94c-6.05-1.642-11.368-4.419-16.51-7.104  c-5.604-2.926-10.954-5.72-16.844-6.859c1.259,4.891,3.002,9.565,5.201,13.918c6.5,3.692,14.011,5.804,22.006,5.804  c6.883,0,13.406-1.566,19.236-4.355c-0.748,0.041-1.492,0.064-2.235,0.064C62.353,89.408,58.755,88.92,55.147,87.94z M17.617,73.47  c-2.146-0.059-3.955,0.239-5.408,0.883c2.735,3.958,6.091,7.455,9.927,10.347c-1.488-3.573-2.702-7.312-3.629-11.173  C18.211,73.505,17.916,73.485,17.617,73.47z M17.716,70.39l0.03,0.001c0.025,0.001,0.049,0.004,0.074,0.005  c-0.704-3.569-1.168-7.227-1.386-10.939c-3.941-0.786-7.779-1.734-11.48-2.84c0.938,5.437,2.861,10.542,5.578,15.121  C12.494,70.765,14.899,70.311,17.716,70.39z M16.289,54.56c0-2.313,0.097-4.61,0.288-6.881c-3.574-0.196-6.378-1.353-8.348-3.46  c-1.302-1.392-2.22-3.199-2.759-5.396C4.707,42.094,4.301,45.5,4.301,49c0,1.435,0.071,2.855,0.204,4.256  c3.791,1.183,7.74,2.195,11.803,3.031C16.296,55.712,16.289,55.137,16.289,54.56z M16.893,44.612  c1.749-14.335,7.233-27.475,15.536-37.124c-10.844,4.344-19.602,12.821-24.32,23.471c-0.46,5.222,0.337,8.977,2.372,11.157  C11.912,43.646,14.065,44.481,16.893,44.612z M46.92,29.905c6.049-4.461,12.303-9.074,18.396-11.876  c4.722-2.171,9.017-3.085,12.992-2.751C70.456,8.445,60.202,4.301,49,4.301c-3.585,0-7.073,0.428-10.416,1.229  c-9.933,9.235-16.551,23.297-18.562,38.922C28.842,43.239,38.023,36.468,46.92,29.905z"/><text x="0" y="113" fill="#000000" font-size="5px" font-weight="bold" font-family="'Helvetica Neue', Helvetica, Arial-Unicode, Arial, Sans-serif">Created by Good Wife</text><text x="0" y="118" fill="#currentColor" font-size="5px" font-weight="bold" font-family="'Helvetica Neue', Helvetica, Arial-Unicode, Arial, Sans-serif">from the Noun Project</text></svg>
    </symbol>

    <symbol id="icon-player" viewBox="0 0 1200 1200">
  <svg xmlns:dc="http://purl.org/dc/elements/1.1/" xmlns:cc="http://creativecommons.org/ns#" xmlns:rdf="http://www.w3.org/1999/02/22-rdf-syntax-ns#" xmlns:svg="http://www.w3.org/2000/svg" xmlns="http://www.w3.org/2000/svg" xmlns:sodipodi="http://sodipodi.sourceforge.net/DTD/sodipodi-0.dtd" xmlns:inkscape="http://www.inkscape.org/namespaces/inkscape" version="1.1" x="0px" y="0px" viewBox="0 0 100 125"><g transform="translate(0,-952.36218)"><path style="text-indent:0;text-transform:none;direction:ltr;block-progression:tb;baseline-shift:baseline;color:#000000;enable-background:accumulate;" d="m 47.259861,958.21475 c -3.642,0 -6.562,2.9515 -6.562,6.5938 0,3.6423 2.92,6.5937 6.562,6.5937 3.642,0 6.594,-2.9514 6.594,-6.5937 0,-3.6423 -2.952,-6.5938 -6.594,-6.5938 z m 6.094,12.5 c -0.693,0.032 -1.378,0.2216 -2.031,0.5625 -2.359,1.6037 -3.028,3.0261 -2.969,4.5 0.06,1.4836 0.929,3.0878 1.844,4.8438 2.097,4.0612 3.855,7.3926 5.937,11.375 0.138,0.1973 0.237,0.4379 -0.125,0.6562 l -5.875,3.1563 3.844,3.125 0.03,0.031 2.266,1.79285 c 0.675,-1.73065 1.747,-4.11825 1.984,-4.75585 0.678,-0.4655 0.104,-0.1808 0.375,0.2442 -0.264,0.7097 -1.158,2.9894 -1.907,4.90635 0,0.017 0,0.045 0,0.062 0,0.1101 -0.05,0.2032 -0.125,0.2812 -0.73,1.871 -1.687,4.2181 -2.437,6.5313 4.302,4.3388 5.654,5.1615 7.719,6.875 1.294,-1.5568 2.902,-3.973 4.25,-6 2.262,-3.5888 4.515,-8.0423 4.625,-11.18755 0.08,-2.2265 -0.828,-4.0587 -2.032,-6.125 -0.688,1.691 -1.399,3.4177 -2.125,5.1562 -1.129,2.7107 -0.885,5.50175 -2.312,8.12505 -0.437,1.5504 -2.263,1.5514 -1.5,-0.7187 l -0.969,1.6875 c -0.562,0.4943 -1.201,1.0019 -1.812,1.4687 -0.02,0.013 -0.04,0.021 -0.06,0.031 -0.277,0.2594 -1.121,0.483 -1.5,-0.2812 -0.543,0.3121 -0.98,0.4512 -1.438,-0.094 -0.159,-0.2809 -0.06,-0.6921 0.25,-1.0313 -0.141,-0.1067 -0.284,-0.2379 -0.312,-0.4062 -0.222,-0.7044 0.921,-1.5067 1.687,-2.25 0.261,-0.3238 0.543,-0.726 0.813,-1.2188 -0.742,0.5203 -1.95,1.3489 -2.594,0.3438 -0.462,-0.5902 2.359,-3.31205 3.594,-4.21885 1.068,-0.8282 2.061,-1.3089 2.687,-2.5312 l 1.969,-8.375 c -3.603,-2.5334 -9.945,-2.5797 -13.344,-6.4375 -1.317,-2.2164 0.405,-5.5386 2.157,-7.3438 1.167,-1.1639 2.341,-1.2167 3.562,-0.75 -1.163,-1.4283 -2.499,-2.081 -4.125,-2.0312 z m 2.719,2.4375 c -0.583,0.032 -1.168,0.2851 -1.719,0.9063 -1.14,0.9811 -3.255,4.8184 -1.969,6.375 3.216,3.5087 10.439,4.0673 13.344,6.375 0.115,0.083 0.158,0.2373 0.125,0.375 l -1.969,8.4687 c -0.437,1.5751 -2.484,2.635 -3.25,3.2813 -1.055,0.8858 -2.097,1.64855 -3.031,3.12505 0.943,0.1252 1.583,-0.8841 2.562,-1.125 0.274,-0.052 0.527,0.3287 0.375,0.5625 -0.367,0.6638 -0.767,1.5714 -1.343,2.25 -0.466,0.4561 -1.758,1.3771 -1.5,1.625 0.154,0.1204 0.193,-0.01 0.468,-0.25 0.439,-0.3729 0.879,-0.7464 1.313,-1.125 0.601,-0.7469 1.151,-1.6981 1.719,-2.375 0.288,-0.3676 0.774,-0.051 0.531,0.4375 -0.496,0.5916 -1.021,1.5541 -1.688,2.375 -0.741,0.629 -2.642,1.9563 -2.437,2.125 0.02,0 0.106,0.27 0.5,-0.125 0.743,-0.4506 2.171,-1.6788 2.219,-1.7188 l 1.593,-2.9062 c 0.254,-0.361 0.797,-0.2035 0.625,0.3125 l -1.656,3.0312 c -0.498,0.4225 -1.074,0.8642 -1.687,1.3125 -0.121,0.1069 -0.236,0.1963 -0.157,0.3438 0.08,0.1253 0.385,0.1059 0.563,-0.094 l 1.656,-1.3125 c 0.618,-1.0621 1.254,-2.1181 1.844,-3.1875 0.322,-0.4123 0.838,0 0.75,0.3125 -0.1,0.7729 -0.423,1.5821 -0.469,2.4062 1.472,-2.2005 1.437,-5.64135 2.531,-8.43755 1.26,-3.0613 2.868,-6.9413 4.125,-10.0937 0.44,-0.8599 0.05,-2.0095 -1.031,-2.5938 -3.787,-2.1117 -6.613,-6.6294 -10.25,-9.5625 -0.761,-0.5702 -1.717,-1.1474 -2.687,-1.0937 z m -7.5,6.0938 c -1.286,2.5533 -2.922,6.9296 -3.969,7.6875 -3.459,2.6281 -7.43,4.2372 -12.38,3.1651 -1.154,-0.1189 -2.12,0.09 -3.198,0.2558 -0.794,0.1742 -0.378,1.0314 0.328,0.7666 1.851,-0.3604 3.439,-0.2441 4.656,1.5625 0.155,0.2323 -0.01,0.6101 -0.281,0.6562 -0.562,0.08 -1.232,-0.3062 -1.906,-0.25 0.784,0.7325 2.939,1.2376 3.75,0.6563 3.902,-2.5088 11.114,-2.2702 13.48,-7.0093 l 1.671,-3.2497 c -0.585,-1.1411 -1.612,-3.097 -2.151,-4.241 z m -21.657,13.1875 c 0.353,0.7495 0.663,1.4814 0.907,2.25 0.681,0 1.32,0.02 1.875,0.062 l 0.281,-2.875 c -1.044,-0.4086 -2.237,0.071 -3.063,0.5625 z m 3.875,-0.6563 c -0.1,0 -0.21,0.021 -0.312,0.031 -0.05,0.9961 -0.164,2.006 -0.25,3 0.538,0.064 1.167,0.1587 1.812,0.2812 0.07,-0.2797 0.162,-0.5443 0.25,-0.8125 -0.421,-0.2069 -0.841,-0.4567 -1.218,-0.7187 -0.303,-0.2842 -0.397,-0.5644 -0.219,-0.9063 0.475,-0.3537 1.012,-0.5264 1.75,-0.3125 -0.545,-0.4939 -1.15,-0.5975 -1.813,-0.5625 z m -4.312,0.9687 c -0.673,0.5316 -1.222,1.216 -1.594,2 0.78,-0.033 1.554,-0.074 2.344,-0.062 -0.228,-0.698 -0.414,-1.2028 -0.75,-1.9375 z m 6.312,1.75 c -0.07,0.2433 -0.155,0.4746 -0.218,0.7188 1.36,0.2738 2.314,0.4793 2.781,0.5937 -0.04,-0.1718 -0.227,-0.5553 -0.375,-0.9062 -0.663,0.084 -1.418,-0.092 -2.188,-0.4063 z m -5.406,0.75 c -0.983,0 -1.677,0.01 -2.719,0.031 -0.798,1.8905 -0.417,3.537 0.688,5.09385 1.326,-1.45805 1.898,-2.45475 2.031,-5.12505 z m 0.531,0 c -0.03,1.9989 -0.356,3.4925 -2.187,5.56255 0.833,0.9556 1.97,1.6302 3.281,1.8438 l 0.656,-7.37505 c -0.49,-0.037 -1.131,-0.027 -1.75,-0.031 z m 2.282,0.094 -0.657,7.37505 c 1.967,-0.084 3.778,-0.8826 4.688,-2.0312 -1.298,-1.45055 -2.491,-2.93895 -2.313,-5.06255 -0.618,-0.1175 -1.213,-0.2198 -1.718,-0.2813 z m 2.25,0.4063 c -0.34,1.5051 0.904,3.2637 2.125,4.50005 0.642,-0.98535 1.029,-2.51305 0.875,-3.84385 -0.31,-0.076 -1.514,-0.3573 -3,-0.6562 z m 16.937,0.5312 c -2.293,1.5999 -5.741,4.37765 -7.906,6.18755 -0.425,0.3549 -0.701,0.9844 -0.75,1.5625 -0.548,3.4893 0.08,8.2143 0.25,12.5938 l 2.845,-0.1646 c 0.312,-3.3134 1.577,-7.3255 0.465,-11.0019 -0.07,-0.2244 0.191,-0.065 0.423,-0.1128 4.589,-1.0676 8.362,-2.7729 11.112,-3.875 l -2.345,-1.84575 z m 4.406,12.59385 c -2.02,3.9427 -3.28,8.3565 -5.343,12.375 -0.448,0.9469 -0.02,2.176 0.75,2.7812 0.01,0 0.02,-0.01 0.03,0 0.213,0.2116 0.462,0.4217 0.75,0.5938 l 18.156,11.125 1.531,-2.3438 c -4.07,-3.9882 -7.917,-9.4789 -14.094,-11.5312 -0.27,-0.1094 -0.353,-0.5366 -0.125,-0.7188 2.405,-1.8856 4.632,-4.1255 5.875,-5.625 -1.98,-1.6423 -3.439,-2.5565 -7.531,-6.6562 z m -9.959,8.25 -2.822,0.3437 c 0.05,0.7723 0.184,1.6872 -0.281,2.2188 -2.205,0.5899 -6.15,-0.035 -6.875,1 -0.271,0.2648 -0.286,0.4661 -0.219,0.6875 0.12,1.6385 8.597,1.0225 9.844,1.0937 0.512,-1.6516 0.931,-3.5076 0.353,-5.3437 z m 26.553,16.7187 -1.594,2.375 c 0.698,0.5672 2.455,1.8145 1.875,2.2813 -1.34,1.7324 -6.031,5.5842 -4.406,7.9062 0.586,0.2853 1.795,-2e-4 2.5,-0.8437 0.01,-0.01 0.02,-0.025 0.03,-0.031 2.33,-2.435 4.663,-4.8674 6.969,-7.3125 -0.05,-0.1226 -0.163,-0.3162 -0.344,-0.5625 -1.263,-1.6971 -2.928,-3.175 -5.031,-3.8125 z" fill="#currentColor" fill-opacity="1" stroke="none" marker="none" visibility="visible" display="inline" overflow="visible"/></g><text x="0" y="115" fill="#currentColor" font-size="5px" font-weight="bold" font-family="'Helvetica Neue', Helvetica, Arial-Unicode, Arial, Sans-serif">Created by Artdabana@Design</text><text x="0" y="120" fill="#currentColor" font-size="5px" font-weight="bold" font-family="'Helvetica Neue', Helvetica, Arial-Unicode, Arial, Sans-serif">from the Noun Project</text></svg>
    </symbol>

    <symbol id="icon-boxscore" viewBox="0 0 1200 1200">
    <svg xmlns="http://www.w3.org/2000/svg" version="1.1" viewBox="-5.0 -10.0 110.0 135.0">
 <path d="m44.445 48.148h-5.5547c-0.51172 0-0.92578-0.41406-0.92578-0.92578v-11.109c0-0.51172 0.41406-0.92578 0.92578-0.92578h5.5547c0.51172 0 0.92578 0.41406 0.92578 0.92578v11.109c0 0.51172-0.41406 0.92578-0.92578 0.92578zm-4.6289-1.8516h3.7031v-9.2578h-3.7031z"/>
 <path d="m50 48.148h-5.5547c-0.51172 0-0.92578-0.41406-0.92578-0.92578v-12.965c0-0.51172 0.41406-0.92578 0.92578-0.92578h5.5547c0.51172 0 0.92578 0.41406 0.92578 0.92578v12.965c0 0.51172-0.41406 0.92578-0.92578 0.92578zm-4.6289-1.8516h3.7031v-11.109h-3.7031z"/>
 <path d="m55.555 48.148h-5.5547c-0.51172 0-0.92578-0.41406-0.92578-0.92578v-14.816c0-0.51172 0.41406-0.92578 0.92578-0.92578h5.5547c0.51172 0 0.92578 0.41406 0.92578 0.92578v14.816c0 0.51172-0.41406 0.92578-0.92578 0.92578zm-4.6289-1.8516h3.7031v-12.965h-3.7031z"/>
 <path d="m61.109 48.148h-5.5547c-0.51172 0-0.92578-0.41406-0.92578-0.92578v-16.668c0-0.51172 0.41406-0.92578 0.92578-0.92578h5.5547c0.51172 0 0.92578 0.41406 0.92578 0.92578v16.668c0 0.51172-0.41406 0.92578-0.92578 0.92578zm-4.6289-1.8516h3.7031v-14.816h-3.7031z"/>
 <path d="m66.668 48.148h-5.5547c-0.51172 0-0.92578-0.41406-0.92578-0.92578v-18.52c0-0.51172 0.41406-0.92578 0.92578-0.92578h5.5547c0.51172 0 0.92578 0.41406 0.92578 0.92578v18.52c0 0.51172-0.41406 0.92578-0.92578 0.92578zm-4.6328-1.8516h3.7031v-16.668h-3.7031z"/>
 <path d="m70.371 48.148h-35.188c-0.51172 0-0.92578-0.41406-0.92578-0.92578 0-0.51172 0.41406-0.92578 0.92578-0.92578h35.184c0.51172 0 0.92578 0.41406 0.92578 0.92578 0.003906 0.51172-0.41016 0.92578-0.92188 0.92578z"/>
 <path d="m77.777 90.742h-50c-0.51172 0-0.92578-0.41406-0.92578-0.92578 0-0.51172 0.41406-0.92578 0.92578-0.92578h49.074v-71.297c0-0.51172 0.41406-0.92578 0.92578-0.92578 0.51172 0 0.92578 0.41406 0.92578 0.92578v72.223c0 0.50781-0.41406 0.92578-0.92578 0.92578z"/>
 <path d="m27.777 83.332c-0.51172 0-0.92578-0.41406-0.92578-0.92578v-64.816c0-0.51172 0.41406-0.92578 0.92578-0.92578h42.094c0.51172 0 0.92578 0.41406 0.92578 0.92578 0 0.51172-0.41406 0.92578-0.92578 0.92578l-41.168 0.003906v63.891c0 0.50781-0.41406 0.92188-0.92578 0.92188z"/>
 <path d="m85.184 77.777h-7.4062c-0.51172 0-0.92578-0.41406-0.92578-0.92578 0-0.51172 0.41406-0.92578 0.92578-0.92578h6.4805v-64.816l-44.441 0.003906v6.4805c0 0.51172-0.41406 0.92578-0.92578 0.92578s-0.92578-0.41406-0.92578-0.92578v-7.4062c0-0.51172 0.41406-0.92578 0.92578-0.92578h46.297c0.51172 0 0.92578 0.41406 0.92578 0.92578v66.668c-0.003906 0.50781-0.41797 0.92188-0.92969 0.92188z"/>
 <path d="m18.52 83.332c-0.30859 0-0.59766-0.15625-0.76953-0.41406l-3.7031-5.5547c-0.10156-0.15234-0.15625-0.33203-0.15625-0.51172v-42.594c0-2.5547 2.0781-4.6289 4.6289-4.6289 2.5547 0 4.6289 2.0781 4.6289 4.6289v42.594c0 0.18359-0.054688 0.36328-0.15625 0.51172l-3.7031 5.5547c-0.17187 0.26172-0.46094 0.41406-0.76953 0.41406zm-2.7773-6.7617 2.7773 4.168 2.7773-4.168v-42.312c0-1.5312-1.2461-2.7773-2.7773-2.7773s-2.7773 1.2461-2.7773 2.7773z"/>
 <path d="m22.223 38.891h-7.4062c-0.51172 0-0.92578-0.41406-0.92578-0.92578 0-0.51172 0.41406-0.92578 0.92578-0.92578h7.4062c0.51172 0 0.92578 0.41406 0.92578 0.92578 0 0.51172-0.41406 0.92578-0.92578 0.92578z"/>
 <path d="m22.223 58.332h-7.4062c-0.51172 0-0.92578-0.41406-0.92578-0.92578s0.41406-0.92578 0.92578-0.92578h7.4062c0.51172 0 0.92578 0.41406 0.92578 0.92578s-0.41406 0.92578-0.92578 0.92578z"/>
 <path d="m22.223 64.816h-7.4062c-0.51172 0-0.92578-0.41406-0.92578-0.92578s0.41406-0.92578 0.92578-0.92578h7.4062c0.51172 0 0.92578 0.41406 0.92578 0.92578s-0.41406 0.92578-0.92578 0.92578z"/>
 <path d="m59.258 55.555h-24.074c-0.51172 0-0.92578-0.41406-0.92578-0.92578 0-0.51172 0.41406-0.92578 0.92578-0.92578h24.074c0.51172 0 0.92578 0.41406 0.92578 0.92578 0 0.51172-0.41406 0.92578-0.92578 0.92578z"/>
 <path d="m70.371 61.113h-35.188c-0.51172 0-0.92578-0.41406-0.92578-0.92578s0.41406-0.92578 0.92578-0.92578h35.184c0.51172 0 0.92578 0.41406 0.92578 0.92578 0.003906 0.50781-0.41016 0.92578-0.92188 0.92578z"/>
 <path d="m70.371 66.668h-35.188c-0.51172 0-0.92578-0.41406-0.92578-0.92578 0-0.51172 0.41406-0.92578 0.92578-0.92578h35.184c0.51172 0 0.92578 0.41406 0.92578 0.92578 0.003906 0.51172-0.41016 0.92578-0.92188 0.92578z"/>
 <path d="m70.371 72.223h-35.188c-0.51172 0-0.92578-0.41406-0.92578-0.92578s0.41406-0.92578 0.92578-0.92578h35.184c0.51172 0 0.92578 0.41406 0.92578 0.92578 0.003906 0.51172-0.41016 0.92578-0.92188 0.92578z"/>
 <path d="m70.371 77.777h-35.188c-0.51172 0-0.92578-0.41406-0.92578-0.92578 0-0.51172 0.41406-0.92578 0.92578-0.92578h35.184c0.51172 0 0.92578 0.41406 0.92578 0.92578 0.003906 0.51172-0.41016 0.92578-0.92188 0.92578z"/>
<text x="0.0" y="117.5" font-size="5.0" font-weight="bold" font-family="Arbeit Regular, Helvetica, Arial-Unicode, Arial, Sans-serif" fill="#currentColor">Created by wasidezine</text><text x="0.0" y="122.5" font-size="5.0" font-weight="bold" font-family="Arbeit Regular, Helvetica, Arial-Unicode, Arial, Sans-serif" fill="#currentColor">from Noun Project</text></svg>
    </symbol>

    <symbol id="icon-season" viewBox="0 0 1200 1200">
    <svg xmlns="http://www.w3.org/2000/svg" version="1.1" viewBox="-5.0 -10.0 110.0 135.0">
 <path d="m23.75 15.844c-0.13281-0.023438-0.26172-0.046875-0.37891-0.074219-0.77734-0.17578-1.3086-0.43359-1.6016-0.66016-1.1836-0.91797-1.7773-2.4336-1.9414-4.1602-0.19141-1.9492 0.16406-4.1836 0.17188-5.4961l0.054688-0.41406 0.13281-0.36719 0.21875-0.33594 0.33984-0.32813c0.45312-0.34766 1.7617-0.76562 3.8203-0.99609 8.1562-0.91016 30.598-0.74609 51.266-0.48828 1.0508 0.015624 1.8086 0.31641 2.375 0.78125 0.57422 0.47656 0.98047 1.1562 1.1836 2.0703 0.37109 1.6719-0.0625 4.5234-0.42969 8.3516-0.074219 0.77734-0.71484 1.3789-1.4961 1.4102-0.25391 0.007812-0.59375 0.023437-1.0117 0.042969 0.32422 3.5625 1.2383 9.2148 1.125 15.598-0.13672 7.668-1.7383 16.344-7.3672 23.855-2.3086 3.082-4.957 5.9102-9.6562 7.5703 2.7773 10.922 4.0391 14.562 6.4688 21.066 0.078124 0.21094 0.10937 0.42969 0.097656 0.64453 0.98438-0.015624 1.7461-0.03125 2.2305-0.050781 1.5312-0.0625 2.5273 0.20703 3.2109 0.8125 0.46875 0.41016 0.84375 0.99609 1.0703 1.8906 0.21484 0.84766 0.30078 2.0977 0.30469 3.9141 0.003906 1.6641 0.19531 2.918 0.13281 3.8359-0.078124 1.0898-0.44141 1.8789-1.1758 2.4688-0.59766 0.47656-1.5547 0.85156-3.1602 0.96094-0.55469 0.039062-15.773 0.0625-24.359 0.48438-0.93359 0.042969-7.0352 0.33984-11.797 0.035156-2.2148-0.14062-4.1602-0.43359-5.2891-0.88672-0.71875-0.29297-1.3672-0.97266-1.7656-2.0391-0.55469-1.4883-0.67969-3.9492-0.55469-6.0352 0.10156-1.6445 0.35938-3.0547 0.58984-3.6328l0.37891-0.64062 0.50781-0.39453 0.79297-0.22266c0.51953-0.074218 1.6094-0.13672 3.1211-0.1875 1.8281-7.1328 4.1016-16.852 5.9844-21.695-2.0625-0.54688-3.5977-1.2812-4.8125-2.2148-2.9609-2.2695-4.1094-5.7656-6.1172-10.934-2.5312-6.5312-3.9648-26.066-2.6641-33.539zm44.918 35.562c4.418-6.6094 5.668-14.062 5.7852-20.684 0.10938-6.293-0.79297-11.871-1.1211-15.402-9.8867 0.44922-33.027 1.4688-44.355 0.99609-0.75781-0.03125-1.4688-0.070312-2.1172-0.11719-1.3281 6.8242 0.035156 25.777 2.4688 32.051 1.7383 4.4805 2.5391 7.6172 5.1055 9.5859 2.6016 1.9961 6.9102 2.7266 15.395 2.7656 4.0625 0.015626 7.1562-0.49219 9.6055-1.3672-0.042969-0.79297-0.058594-1.5898-0.19141-2.3672-0.074219-0.42188 0.21094-0.82813 0.63281-0.90234 0.42578-0.074219 0.83203 0.21094 0.90625 0.63672 0.11328 0.65625 0.14062 1.332 0.17188 2.0078 0.25391-0.12109 0.50391-0.24609 0.74219-0.375-0.09375-0.96094-0.31641-1.9062-0.58203-2.832-0.12109-0.41406 0.12109-0.84766 0.53516-0.96484 0.41406-0.12109 0.84766 0.12109 0.96875 0.53516 0.21875 0.78125 0.41406 1.5742 0.53906 2.375 0.22266-0.15234 0.4375-0.3125 0.64844-0.47266-0.21875-1.1836-0.64453-2.3906-1.0352-3.4922-0.14453-0.40625 0.070313-0.85156 0.47656-0.99609s0.85156 0.070312 0.99609 0.47656c0.32031 0.90625 0.66016 1.8789 0.90625 2.8555 0.19922-0.19531 0.39844-0.39062 0.58594-0.59375-0.070313-0.17578-0.14844-0.35156-0.20312-0.51562-0.33984-0.98438-0.67188-1.9688-1.0742-2.9297-0.16406-0.39844 0.023438-0.85547 0.42188-1.0195 0.39844-0.16797 0.85547 0.019532 1.0195 0.41797 0.375 0.89062 0.69141 1.8047 1.0039 2.7188 0.24219-0.29688 0.47656-0.60156 0.70703-0.90625-0.38281-0.87891-0.75781-1.7617-1.1406-2.6406-0.17578-0.39844 0.007812-0.85938 0.40234-1.0312 0.39453-0.17188 0.85547 0.007812 1.0273 0.40625 0.25781 0.59375 0.51562 1.1875 0.76953 1.7812zm-23.273-19.082c0.82031-2.0859 2.8711-9.6992 3.082-10.477 0.17969-0.66016 0.76953-1.1289 1.4531-1.1523 0.6875-0.023437 1.3047 0.39844 1.5312 1.0469 1.4727 4.2344 1.5352 4.1719 3.1719 8.3477 0.125 0.32422 0.21094 0.55078 0.37891 0.69531 0.32422 0.27344 0.79297 0.25781 1.5312 0.375 1.293 0.20703 3.1641 0.47656 6.0039 1.2773 0.57812 0.16406 1.0117 0.64453 1.1172 1.2383 0.10156 0.58984-0.14453 1.1875-0.63281 1.5391-3.4727 2.4844-5.0898 4.4453-6.0352 5.6484 2.0469 3.9414 2.3477 4.3242 2.8594 7.1914 0.12109 0.6875-0.23047 1.375-0.85547 1.6797-0.63281 0.30469-1.3867 0.15625-1.8516-0.36719-0.32813-0.375-2.0703-2.332-4.1992-3.8359-1.1953-0.84375-2.5039-1.5859-3.7422-1.6328-0.125 0.11719-0.59766 0.55078-0.92188 0.9375-1.2109 1.4414-2.8945 3.7344-5.8789 6.2148-0.53906 0.44922-1.3086 0.48047-1.8867 0.082031-0.57812-0.39844-0.81641-1.1328-0.58594-1.7969 1.1914-3.4219 2.1406-5.3828 2.6133-9.0156-2.8867-0.97656-4.4336-1.7578-7.1758-5.1875-0.39062-0.49219-0.45312-1.1641-0.15234-1.7188 0.29688-0.55078 0.89062-0.87109 1.5156-0.8125 0.46094 0.039063 3.0977 0.28516 5.5742 0.17578 1.1953-0.050782 2.3594-0.13281 3.0859-0.45312zm9.0859 10.465c-0.21875-0.41406-0.45703-0.875-0.72656-1.3984-0.29688-0.57422-0.20703-1.2695 0.22266-1.7539 0.71875-0.80859 1.8164-2.543 4.6406-4.9453-1.5859-0.32422-2.6758-0.44141-3.4688-0.60156-0.92578-0.18359-1.5625-0.44531-2.082-0.85938-0.52344-0.41797-0.95312-1.0117-1.3438-2-0.73828-1.8867-1.1602-2.918-1.5352-3.8633-0.55859 1.9727-1.1875 4.1016-1.6328 5.3984-0.23828 0.70312-0.45313 1.2031-0.58594 1.4219l-0.25781 0.33594-0.27344 0.23047c-0.78516 0.53125-2.1172 0.89453-3.6445 1.0508-1.043 0.10547-2.1875 0.13281-3.2617 0.11719 1.1992 0.86328 2.3945 1.2344 4.1914 1.8242 0.69141 0.23047 1.1367 0.90234 1.0703 1.6289-0.16016 1.7773-0.41016 3.1914-0.73438 4.4805 0.57031-0.69922 1.0352-1.2891 1.4531-1.7266 0.90234-0.95312 1.7578-1.3555 2.5664-1.3555 1.7578-0.003907 3.6797 0.84766 5.4023 2.0156zm-25.113 44.676c-0.14063 1.1055-0.40234 3.4883-0.25 5.082 0.050781 0.53125 0.13281 1.0312 0.25391 1.4531 0.050781 0.18359 0.17188 0.42969 0.21875 0.53125 0.93359 0.33594 2.4648 0.50781 4.1875 0.61719 4.6211 0.29687 10.539 0.003906 11.445-0.039063 8.5625-0.42188 23.742-0.44141 24.297-0.48047 0.49609-0.035156 0.88281-0.085937 1.1875-0.18359 0.066407-0.019531 0.15234-0.058593 0.19922-0.082031 0.011719-0.11719 0.058594-0.58203 0.042969-0.93359-0.035157-0.78906-0.13281-1.7617-0.13672-2.9453 0-1.0625-0.027344-1.8945-0.10547-2.543-0.042969-0.36328-0.17578-0.80078-0.21094-0.90625-0.054688-0.011718-0.16016-0.035156-0.23828-0.042968-0.22656-0.023438-0.48437-0.019532-0.77734-0.007813-3.9922 0.16797-27.293 0.078125-37.035 0.33594-1.2188 0.03125-2.3633 0.097657-3.0781 0.14453zm28.176-24.43c-2.1758 0.45703-4.7188 0.70312-7.7266 0.69141-3.8203-0.019531-6.8789-0.20703-9.3633-0.57031-1.8047 4.2031-4.0117 13.746-5.8516 20.992 8.0273-0.14844 21.559-0.14844 29.34-0.20313-2.3633-6.3359-3.6484-10.102-6.3984-20.91zm17.281-50.91c0.42969-0.019531 0.82031-0.039062 1.1641-0.054688 0.25-2.2656 0.49609-4.082 0.42578-5.3945-0.011718-0.26562-0.039062-0.50391-0.09375-0.71094-0.03125-0.10156-0.039062-0.19531-0.10547-0.25-0.097656-0.078125-0.24219-0.0625-0.42188-0.066406-20.512-0.25781-42.785-0.4375-50.879 0.46875-0.6875 0.078124-1.3789 0.21094-1.8359 0.30859-0.070313 0.98047-0.20312 2.1992-0.1875 3.3867 0.011719 0.66406 0.066406 1.3164 0.23828 1.8867 0.10547 0.35156 0.24609 0.66797 0.5 0.89453 0.10938 0.03125 0.52344 0.15234 0.86719 0.21094 1.0781 0.1875 2.6602 0.30859 4.6094 0.39062 11.832 0.49219 36.613-0.65625 45.496-1.0625 0.042969-0.003906 0.085938-0.007812 0.13281-0.007812h0.089844z" fill-rule="evenodd"/>
<text x="0.0" y="117.5" font-size="5.0" font-weight="bold" font-family="Arbeit Regular, Helvetica, Arial-Unicode, Arial, Sans-serif" fill="#currentColor">Created by Blangcon</text><text x="0.0" y="122.5" font-size="5.0" font-weight="bold" font-family="Arbeit Regular, Helvetica, Arial-Unicode, Arial, Sans-serif" fill="#currentColor">from Noun Project</text></svg>
    </symbol>

    <symbol id="icon-game" viewBox="0 0 1200 1200">
    <svg xmlns="http://www.w3.org/2000/svg" version="1.1" viewBox="-5.0 -10.0 110.0 135.0">
 <path d="m44.629 36.922c0-2.9609 2.4102-5.3711 5.3711-5.3711s5.3711 2.4102 5.3711 5.3711-2.4102 5.3711-5.3711 5.3711c-2.9609-0.003907-5.3711-2.4141-5.3711-5.3711zm19.109 9.2578-8.2383 5.1914c-1.7617 1.1094-2.0391 3.4688-1.4414 4.8086l6.3086 14.129c1.6914 3.75 6.8086 1.6797 5.3711-2l-3.5391-10.07c-0.23828-0.67188-0.42969-1.6484 0.21094-1.9414l6.8203-3.0781 9.0898 23.59c1.3984 3.4297 6.2812 1.9219 5.25-1.7383l-7.4492-26.441 2.1484-10.828 5.8711 12.461c1.4609 2.9219 5.5117 1.25 4.4219-1.8789l-5.2891-15.09c-0.46094-1.3281-1.4219-2.2695-2.7383-2.7305-5.3789-1.8711-7.7695-2.3086-12.391-5.6797-0.57031-0.42187-0.76953-1.1602-0.48047-1.8086l3.9492-8.8086c1.3906-3.0898-3.0586-5.1992-4.5586-2.1289l-5.3906 10.98c-0.85937 1.75-0.51953 3.7617 0.87109 5.1289l2.8789 2.8398c1.1602 1.1484 1.5898 2.7109 1.1797 4.2891zm14.152-19.73c2.5781 0 4.6797-2.1016 4.6797-4.6797s-2.1016-4.6797-4.6797-4.6797c-2.5703 0-4.6797 2.1016-4.6797 4.6797 0.007812 2.582 2.1094 4.6797 4.6797 4.6797zm-62.02 23.812 5.8711-12.461 2.1484 10.828-7.4492 26.441c-1.0312 3.6484 3.8516 5.1602 5.25 1.7383l9.0898-23.59 6.8203 3.0781c0.64844 0.28906 0.44922 1.2695 0.21094 1.9414l-3.5391 10.078c-1.4414 3.6719 3.6797 5.75 5.3711 2l6.3086-14.129c0.60156-1.3516 0.32031-3.6992-1.4414-4.8086l-8.2383-5.1914-2.8203-10.801c-0.41016-1.5781 0.019531-3.1406 1.1797-4.2891l2.8789-2.8398c1.3789-1.3711 1.7188-3.3789 0.87109-5.1289l-5.3906-10.98c-1.5117-3.0703-5.9492-0.96094-4.5586 2.1289l3.9492 8.8086c0.28906 0.64844 0.089844 1.3906-0.48047 1.8086-4.6211 3.3711-7.0117 3.8086-12.391 5.6797-1.3281 0.46094-2.2812 1.4102-2.7383 2.7305l-5.2891 15.09c-1.1328 3.1172 2.9141 4.7773 4.3867 1.8672zm6.2383-23.812c2.5781 0 4.6797-2.1016 4.6797-4.6797s-2.1016-4.6797-4.6797-4.6797c-2.5703 0-4.6797 2.1016-4.6797 4.6797 0 2.582 2.1016 4.6797 4.6797 4.6797zm66.629 60.391h-77.477c-0.69922 0-1.2617 0.57031-1.2617 1.2617 0 0.69922 0.57031 1.2617 1.2617 1.2617h77.469c0.69922 0 1.2617-0.57031 1.2617-1.2617 0.007812-0.70312-0.5625-1.2617-1.2539-1.2617z" fill-rule="evenodd"/>
<text x="0.0" y="117.5" font-size="5.0" font-weight="bold" font-family="Arbeit Regular, Helvetica, Arial-Unicode, Arial, Sans-serif" fill="#currentColor">Created by Mia Elysia</text><text x="0.0" y="122.5" font-size="5.0" font-weight="bold" font-family="Arbeit Regular, Helvetica, Arial-Unicode, Arial, Sans-serif" fill="#currentColor">from Noun Project</text></svg>
    </symbol>
  </defs>
</svg>

