<svg xmlns="http://www.w3.org/2000/svg" xmlns:xlink="http://www.w3.org/1999/xlink" version="1.1" x="0px" y="0px" viewBox="0 0 98 122.5" style="enable-background:new 0 0 98 98;" xml:space="preserve"><style type="text/css">
	.st0{fill-rule:evenodd;clip-rule:evenodd;}
</style><path class="st0" d="M93.699,48.999c0,0.518-0.012,1.032-0.03,1.545c-14.19,5.64-30.914,8.621-48.418,8.621  c-8.814,0-17.542-0.777-25.846-2.28c-0.022-0.772-0.033-1.547-0.033-2.323c0-2.344,0.106-4.669,0.309-6.966  c9.852-1.038,19.615-8.234,29.07-15.209C60.716,23.56,72.024,15.22,82.456,19.391C89.447,27.282,93.699,37.653,93.699,48.999z   M19.558,60.043c0.247,3.628,0.742,7.199,1.472,10.674c6.857,1.031,12.795,4.129,19.032,7.386  c9.928,5.183,20.192,10.54,35.038,7.161c9.994-7.213,16.899-18.45,18.322-31.315c-14.245,5.433-30.846,8.298-48.172,8.298  C36.503,62.247,27.833,61.496,19.558,60.043z M55.147,87.94c-6.05-1.642-11.368-4.419-16.51-7.104  c-5.604-2.926-10.954-5.72-16.844-6.859c1.259,4.891,3.002,9.565,5.201,13.918c6.5,3.692,14.011,5.804,22.006,5.804  c6.883,0,13.406-1.566,19.236-4.355c-0.748,0.041-1.492,0.064-2.235,0.064C62.353,89.408,58.755,88.92,55.147,87.94z M17.617,73.47  c-2.146-0.059-3.955,0.239-5.408,0.883c2.735,3.958,6.091,7.455,9.927,10.347c-1.488-3.573-2.702-7.312-3.629-11.173  C18.211,73.505,17.916,73.485,17.617,73.47z M17.716,70.39l0.03,0.001c0.025,0.001,0.049,0.004,0.074,0.005  c-0.704-3.569-1.168-7.227-1.386-10.939c-3.941-0.786-7.779-1.734-11.48-2.84c0.938,5.437,2.861,10.542,5.578,15.121  C12.494,70.765,14.899,70.311,17.716,70.39z M16.289,54.56c0-2.313,0.097-4.61,0.288-6.881c-3.574-0.196-6.378-1.353-8.348-3.46  c-1.302-1.392-2.22-3.199-2.759-5.396C4.707,42.094,4.301,45.5,4.301,49c0,1.435,0.071,2.855,0.204,4.256  c3.791,1.183,7.74,2.195,11.803,3.031C16.296,55.712,16.289,55.137,16.289,54.56z M16.893,44.612  c1.749-14.335,7.233-27.475,15.536-37.124c-10.844,4.344-19.602,12.821-24.32,23.471c-0.46,5.222,0.337,8.977,2.372,11.157  C11.912,43.646,14.065,44.481,16.893,44.612z M46.92,29.905c6.049-4.461,12.303-9.074,18.396-11.876  c4.722-2.171,9.017-3.085,12.992-2.751C70.456,8.445,60.202,4.301,49,4.301c-3.585,0-7.073,0.428-10.416,1.229  c-9.933,9.235-16.551,23.297-18.562,38.922C28.842,43.239,38.023,36.468,46.92,29.905z"/><text x="0" y="113" fill="#000000" font-size="5px" font-weight="bold" font-family="'Helvetica Neue', Helvetica, Arial-Unicode, Arial, Sans-serif">Created by Good Wife</text><text x="0" y="118" fill="#000000" font-size="5px" font-weight="bold" font-family="'Helvetica Neue', Helvetica, Arial-Unicode, Arial, Sans-serif">from the Noun Project</text></svg>