<svg xmlns="http://www.w3.org/2000/svg" version="1.1" viewBox="-5.0 -10.0 110.0 135.0">
 <path d="m23.75 15.844c-0.13281-0.023438-0.26172-0.046875-0.37891-0.074219-0.77734-0.17578-1.3086-0.43359-1.6016-0.66016-1.1836-0.91797-1.7773-2.4336-1.9414-4.1602-0.19141-1.9492 0.16406-4.1836 0.17188-5.4961l0.054688-0.41406 0.13281-0.36719 0.21875-0.33594 0.33984-0.32813c0.45312-0.34766 1.7617-0.76562 3.8203-0.99609 8.1562-0.91016 30.598-0.74609 51.266-0.48828 1.0508 0.015624 1.8086 0.31641 2.375 0.78125 0.57422 0.47656 0.98047 1.1562 1.1836 2.0703 0.37109 1.6719-0.0625 4.5234-0.42969 8.3516-0.074219 0.77734-0.71484 1.3789-1.4961 1.4102-0.25391 0.007812-0.59375 0.023437-1.0117 0.042969 0.32422 3.5625 1.2383 9.2148 1.125 15.598-0.13672 7.668-1.7383 16.344-7.3672 23.855-2.3086 3.082-4.957 5.9102-9.6562 7.5703 2.7773 10.922 4.0391 14.562 6.4688 21.066 0.078124 0.21094 0.10937 0.42969 0.097656 0.64453 0.98438-0.015624 1.7461-0.03125 2.2305-0.050781 1.5312-0.0625 2.5273 0.20703 3.2109 0.8125 0.46875 0.41016 0.84375 0.99609 1.0703 1.8906 0.21484 0.84766 0.30078 2.0977 0.30469 3.9141 0.003906 1.6641 0.19531 2.918 0.13281 3.8359-0.078124 1.0898-0.44141 1.8789-1.1758 2.4688-0.59766 0.47656-1.5547 0.85156-3.1602 0.96094-0.55469 0.039062-15.773 0.0625-24.359 0.48438-0.93359 0.042969-7.0352 0.33984-11.797 0.035156-2.2148-0.14062-4.1602-0.43359-5.2891-0.88672-0.71875-0.29297-1.3672-0.97266-1.7656-2.0391-0.55469-1.4883-0.67969-3.9492-0.55469-6.0352 0.10156-1.6445 0.35938-3.0547 0.58984-3.6328l0.37891-0.64062 0.50781-0.39453 0.79297-0.22266c0.51953-0.074218 1.6094-0.13672 3.1211-0.1875 1.8281-7.1328 4.1016-16.852 5.9844-21.695-2.0625-0.54688-3.5977-1.2812-4.8125-2.2148-2.9609-2.2695-4.1094-5.7656-6.1172-10.934-2.5312-6.5312-3.9648-26.066-2.6641-33.539zm44.918 35.562c4.418-6.6094 5.668-14.062 5.7852-20.684 0.10938-6.293-0.79297-11.871-1.1211-15.402-9.8867 0.44922-33.027 1.4688-44.355 0.99609-0.75781-0.03125-1.4688-0.070312-2.1172-0.11719-1.3281 6.8242 0.035156 25.777 2.4688 32.051 1.7383 4.4805 2.5391 7.6172 5.1055 9.5859 2.6016 1.9961 6.9102 2.7266 15.395 2.7656 4.0625 0.015626 7.1562-0.49219 9.6055-1.3672-0.042969-0.79297-0.058594-1.5898-0.19141-2.3672-0.074219-0.42188 0.21094-0.82813 0.63281-0.90234 0.42578-0.074219 0.83203 0.21094 0.90625 0.63672 0.11328 0.65625 0.14062 1.332 0.17188 2.0078 0.25391-0.12109 0.50391-0.24609 0.74219-0.375-0.09375-0.96094-0.31641-1.9062-0.58203-2.832-0.12109-0.41406 0.12109-0.84766 0.53516-0.96484 0.41406-0.12109 0.84766 0.12109 0.96875 0.53516 0.21875 0.78125 0.41406 1.5742 0.53906 2.375 0.22266-0.15234 0.4375-0.3125 0.64844-0.47266-0.21875-1.1836-0.64453-2.3906-1.0352-3.4922-0.14453-0.40625 0.070313-0.85156 0.47656-0.99609s0.85156 0.070312 0.99609 0.47656c0.32031 0.90625 0.66016 1.8789 0.90625 2.8555 0.19922-0.19531 0.39844-0.39062 0.58594-0.59375-0.070313-0.17578-0.14844-0.35156-0.20312-0.51562-0.33984-0.98438-0.67188-1.9688-1.0742-2.9297-0.16406-0.39844 0.023438-0.85547 0.42188-1.0195 0.39844-0.16797 0.85547 0.019532 1.0195 0.41797 0.375 0.89062 0.69141 1.8047 1.0039 2.7188 0.24219-0.29688 0.47656-0.60156 0.70703-0.90625-0.38281-0.87891-0.75781-1.7617-1.1406-2.6406-0.17578-0.39844 0.007812-0.85938 0.40234-1.0312 0.39453-0.17188 0.85547 0.007812 1.0273 0.40625 0.25781 0.59375 0.51562 1.1875 0.76953 1.7812zm-23.273-19.082c0.82031-2.0859 2.8711-9.6992 3.082-10.477 0.17969-0.66016 0.76953-1.1289 1.4531-1.1523 0.6875-0.023437 1.3047 0.39844 1.5312 1.0469 1.4727 4.2344 1.5352 4.1719 3.1719 8.3477 0.125 0.32422 0.21094 0.55078 0.37891 0.69531 0.32422 0.27344 0.79297 0.25781 1.5312 0.375 1.293 0.20703 3.1641 0.47656 6.0039 1.2773 0.57812 0.16406 1.0117 0.64453 1.1172 1.2383 0.10156 0.58984-0.14453 1.1875-0.63281 1.5391-3.4727 2.4844-5.0898 4.4453-6.0352 5.6484 2.0469 3.9414 2.3477 4.3242 2.8594 7.1914 0.12109 0.6875-0.23047 1.375-0.85547 1.6797-0.63281 0.30469-1.3867 0.15625-1.8516-0.36719-0.32813-0.375-2.0703-2.332-4.1992-3.8359-1.1953-0.84375-2.5039-1.5859-3.7422-1.6328-0.125 0.11719-0.59766 0.55078-0.92188 0.9375-1.2109 1.4414-2.8945 3.7344-5.8789 6.2148-0.53906 0.44922-1.3086 0.48047-1.8867 0.082031-0.57812-0.39844-0.81641-1.1328-0.58594-1.7969 1.1914-3.4219 2.1406-5.3828 2.6133-9.0156-2.8867-0.97656-4.4336-1.7578-7.1758-5.1875-0.39062-0.49219-0.45312-1.1641-0.15234-1.7188 0.29688-0.55078 0.89062-0.87109 1.5156-0.8125 0.46094 0.039063 3.0977 0.28516 5.5742 0.17578 1.1953-0.050782 2.3594-0.13281 3.0859-0.45312zm9.0859 10.465c-0.21875-0.41406-0.45703-0.875-0.72656-1.3984-0.29688-0.57422-0.20703-1.2695 0.22266-1.7539 0.71875-0.80859 1.8164-2.543 4.6406-4.9453-1.5859-0.32422-2.6758-0.44141-3.4688-0.60156-0.92578-0.18359-1.5625-0.44531-2.082-0.85938-0.52344-0.41797-0.95312-1.0117-1.3438-2-0.73828-1.8867-1.1602-2.918-1.5352-3.8633-0.55859 1.9727-1.1875 4.1016-1.6328 5.3984-0.23828 0.70312-0.45313 1.2031-0.58594 1.4219l-0.25781 0.33594-0.27344 0.23047c-0.78516 0.53125-2.1172 0.89453-3.6445 1.0508-1.043 0.10547-2.1875 0.13281-3.2617 0.11719 1.1992 0.86328 2.3945 1.2344 4.1914 1.8242 0.69141 0.23047 1.1367 0.90234 1.0703 1.6289-0.16016 1.7773-0.41016 3.1914-0.73438 4.4805 0.57031-0.69922 1.0352-1.2891 1.4531-1.7266 0.90234-0.95312 1.7578-1.3555 2.5664-1.3555 1.7578-0.003907 3.6797 0.84766 5.4023 2.0156zm-25.113 44.676c-0.14063 1.1055-0.40234 3.4883-0.25 5.082 0.050781 0.53125 0.13281 1.0312 0.25391 1.4531 0.050781 0.18359 0.17188 0.42969 0.21875 0.53125 0.93359 0.33594 2.4648 0.50781 4.1875 0.61719 4.6211 0.29687 10.539 0.003906 11.445-0.039063 8.5625-0.42188 23.742-0.44141 24.297-0.48047 0.49609-0.035156 0.88281-0.085937 1.1875-0.18359 0.066407-0.019531 0.15234-0.058593 0.19922-0.082031 0.011719-0.11719 0.058594-0.58203 0.042969-0.93359-0.035157-0.78906-0.13281-1.7617-0.13672-2.9453 0-1.0625-0.027344-1.8945-0.10547-2.543-0.042969-0.36328-0.17578-0.80078-0.21094-0.90625-0.054688-0.011718-0.16016-0.035156-0.23828-0.042968-0.22656-0.023438-0.48437-0.019532-0.77734-0.007813-3.9922 0.16797-27.293 0.078125-37.035 0.33594-1.2188 0.03125-2.3633 0.097657-3.0781 0.14453zm28.176-24.43c-2.1758 0.45703-4.7188 0.70312-7.7266 0.69141-3.8203-0.019531-6.8789-0.20703-9.3633-0.57031-1.8047 4.2031-4.0117 13.746-5.8516 20.992 8.0273-0.14844 21.559-0.14844 29.34-0.20313-2.3633-6.3359-3.6484-10.102-6.3984-20.91zm17.281-50.91c0.42969-0.019531 0.82031-0.039062 1.1641-0.054688 0.25-2.2656 0.49609-4.082 0.42578-5.3945-0.011718-0.26562-0.039062-0.50391-0.09375-0.71094-0.03125-0.10156-0.039062-0.19531-0.10547-0.25-0.097656-0.078125-0.24219-0.0625-0.42188-0.066406-20.512-0.25781-42.785-0.4375-50.879 0.46875-0.6875 0.078124-1.3789 0.21094-1.8359 0.30859-0.070313 0.98047-0.20312 2.1992-0.1875 3.3867 0.011719 0.66406 0.066406 1.3164 0.23828 1.8867 0.10547 0.35156 0.24609 0.66797 0.5 0.89453 0.10938 0.03125 0.52344 0.15234 0.86719 0.21094 1.0781 0.1875 2.6602 0.30859 4.6094 0.39062 11.832 0.49219 36.613-0.65625 45.496-1.0625 0.042969-0.003906 0.085938-0.007812 0.13281-0.007812h0.089844z" fill-rule="evenodd"/>
<text x="0.0" y="117.5" font-size="5.0" font-weight="bold" font-family="Arbeit Regular, Helvetica, Arial-Unicode, Arial, Sans-serif" fill="#000000">Created by Blangcon</text><text x="0.0" y="122.5" font-size="5.0" font-weight="bold" font-family="Arbeit Regular, Helvetica, Arial-Unicode, Arial, Sans-serif" fill="#000000">from Noun Project</text></svg>