<svg xmlns="http://www.w3.org/2000/svg" version="1.1" viewBox="-5.0 -10.0 110.0 135.0">
 <path d="m44.445 48.148h-5.5547c-0.51172 0-0.92578-0.41406-0.92578-0.92578v-11.109c0-0.51172 0.41406-0.92578 0.92578-0.92578h5.5547c0.51172 0 0.92578 0.41406 0.92578 0.92578v11.109c0 0.51172-0.41406 0.92578-0.92578 0.92578zm-4.6289-1.8516h3.7031v-9.2578h-3.7031z"/>
 <path d="m50 48.148h-5.5547c-0.51172 0-0.92578-0.41406-0.92578-0.92578v-12.965c0-0.51172 0.41406-0.92578 0.92578-0.92578h5.5547c0.51172 0 0.92578 0.41406 0.92578 0.92578v12.965c0 0.51172-0.41406 0.92578-0.92578 0.92578zm-4.6289-1.8516h3.7031v-11.109h-3.7031z"/>
 <path d="m55.555 48.148h-5.5547c-0.51172 0-0.92578-0.41406-0.92578-0.92578v-14.816c0-0.51172 0.41406-0.92578 0.92578-0.92578h5.5547c0.51172 0 0.92578 0.41406 0.92578 0.92578v14.816c0 0.51172-0.41406 0.92578-0.92578 0.92578zm-4.6289-1.8516h3.7031v-12.965h-3.7031z"/>
 <path d="m61.109 48.148h-5.5547c-0.51172 0-0.92578-0.41406-0.92578-0.92578v-16.668c0-0.51172 0.41406-0.92578 0.92578-0.92578h5.5547c0.51172 0 0.92578 0.41406 0.92578 0.92578v16.668c0 0.51172-0.41406 0.92578-0.92578 0.92578zm-4.6289-1.8516h3.7031v-14.816h-3.7031z"/>
 <path d="m66.668 48.148h-5.5547c-0.51172 0-0.92578-0.41406-0.92578-0.92578v-18.52c0-0.51172 0.41406-0.92578 0.92578-0.92578h5.5547c0.51172 0 0.92578 0.41406 0.92578 0.92578v18.52c0 0.51172-0.41406 0.92578-0.92578 0.92578zm-4.6328-1.8516h3.7031v-16.668h-3.7031z"/>
 <path d="m70.371 48.148h-35.188c-0.51172 0-0.92578-0.41406-0.92578-0.92578 0-0.51172 0.41406-0.92578 0.92578-0.92578h35.184c0.51172 0 0.92578 0.41406 0.92578 0.92578 0.003906 0.51172-0.41016 0.92578-0.92188 0.92578z"/>
 <path d="m77.777 90.742h-50c-0.51172 0-0.92578-0.41406-0.92578-0.92578 0-0.51172 0.41406-0.92578 0.92578-0.92578h49.074v-71.297c0-0.51172 0.41406-0.92578 0.92578-0.92578 0.51172 0 0.92578 0.41406 0.92578 0.92578v72.223c0 0.50781-0.41406 0.92578-0.92578 0.92578z"/>
 <path d="m27.777 83.332c-0.51172 0-0.92578-0.41406-0.92578-0.92578v-64.816c0-0.51172 0.41406-0.92578 0.92578-0.92578h42.094c0.51172 0 0.92578 0.41406 0.92578 0.92578 0 0.51172-0.41406 0.92578-0.92578 0.92578l-41.168 0.003906v63.891c0 0.50781-0.41406 0.92188-0.92578 0.92188z"/>
 <path d="m85.184 77.777h-7.4062c-0.51172 0-0.92578-0.41406-0.92578-0.92578 0-0.51172 0.41406-0.92578 0.92578-0.92578h6.4805v-64.816l-44.441 0.003906v6.4805c0 0.51172-0.41406 0.92578-0.92578 0.92578s-0.92578-0.41406-0.92578-0.92578v-7.4062c0-0.51172 0.41406-0.92578 0.92578-0.92578h46.297c0.51172 0 0.92578 0.41406 0.92578 0.92578v66.668c-0.003906 0.50781-0.41797 0.92188-0.92969 0.92188z"/>
 <path d="m18.52 83.332c-0.30859 0-0.59766-0.15625-0.76953-0.41406l-3.7031-5.5547c-0.10156-0.15234-0.15625-0.33203-0.15625-0.51172v-42.594c0-2.5547 2.0781-4.6289 4.6289-4.6289 2.5547 0 4.6289 2.0781 4.6289 4.6289v42.594c0 0.18359-0.054688 0.36328-0.15625 0.51172l-3.7031 5.5547c-0.17187 0.26172-0.46094 0.41406-0.76953 0.41406zm-2.7773-6.7617 2.7773 4.168 2.7773-4.168v-42.312c0-1.5312-1.2461-2.7773-2.7773-2.7773s-2.7773 1.2461-2.7773 2.7773z"/>
 <path d="m22.223 38.891h-7.4062c-0.51172 0-0.92578-0.41406-0.92578-0.92578 0-0.51172 0.41406-0.92578 0.92578-0.92578h7.4062c0.51172 0 0.92578 0.41406 0.92578 0.92578 0 0.51172-0.41406 0.92578-0.92578 0.92578z"/>
 <path d="m22.223 58.332h-7.4062c-0.51172 0-0.92578-0.41406-0.92578-0.92578s0.41406-0.92578 0.92578-0.92578h7.4062c0.51172 0 0.92578 0.41406 0.92578 0.92578s-0.41406 0.92578-0.92578 0.92578z"/>
 <path d="m22.223 64.816h-7.4062c-0.51172 0-0.92578-0.41406-0.92578-0.92578s0.41406-0.92578 0.92578-0.92578h7.4062c0.51172 0 0.92578 0.41406 0.92578 0.92578s-0.41406 0.92578-0.92578 0.92578z"/>
 <path d="m59.258 55.555h-24.074c-0.51172 0-0.92578-0.41406-0.92578-0.92578 0-0.51172 0.41406-0.92578 0.92578-0.92578h24.074c0.51172 0 0.92578 0.41406 0.92578 0.92578 0 0.51172-0.41406 0.92578-0.92578 0.92578z"/>
 <path d="m70.371 61.113h-35.188c-0.51172 0-0.92578-0.41406-0.92578-0.92578s0.41406-0.92578 0.92578-0.92578h35.184c0.51172 0 0.92578 0.41406 0.92578 0.92578 0.003906 0.50781-0.41016 0.92578-0.92188 0.92578z"/>
 <path d="m70.371 66.668h-35.188c-0.51172 0-0.92578-0.41406-0.92578-0.92578 0-0.51172 0.41406-0.92578 0.92578-0.92578h35.184c0.51172 0 0.92578 0.41406 0.92578 0.92578 0.003906 0.51172-0.41016 0.92578-0.92188 0.92578z"/>
 <path d="m70.371 72.223h-35.188c-0.51172 0-0.92578-0.41406-0.92578-0.92578s0.41406-0.92578 0.92578-0.92578h35.184c0.51172 0 0.92578 0.41406 0.92578 0.92578 0.003906 0.51172-0.41016 0.92578-0.92188 0.92578z"/>
 <path d="m70.371 77.777h-35.188c-0.51172 0-0.92578-0.41406-0.92578-0.92578 0-0.51172 0.41406-0.92578 0.92578-0.92578h35.184c0.51172 0 0.92578 0.41406 0.92578 0.92578 0.003906 0.51172-0.41016 0.92578-0.92188 0.92578z"/>
<text x="0.0" y="117.5" font-size="5.0" font-weight="bold" font-family="Arbeit Regular, Helvetica, Arial-Unicode, Arial, Sans-serif" fill="#000000">Created by wasidezine</text><text x="0.0" y="122.5" font-size="5.0" font-weight="bold" font-family="Arbeit Regular, Helvetica, Arial-Unicode, Arial, Sans-serif" fill="#000000">from Noun Project</text></svg>