<svg xmlns:dc="http://purl.org/dc/elements/1.1/" xmlns:cc="http://creativecommons.org/ns#" xmlns:rdf="http://www.w3.org/1999/02/22-rdf-syntax-ns#" xmlns:svg="http://www.w3.org/2000/svg" xmlns="http://www.w3.org/2000/svg" xmlns:sodipodi="http://sodipodi.sourceforge.net/DTD/sodipodi-0.dtd" xmlns:inkscape="http://www.inkscape.org/namespaces/inkscape" version="1.1" x="0px" y="0px" viewBox="0 0 100 125"><g transform="translate(0,-952.36218)"><path style="text-indent:0;text-transform:none;direction:ltr;block-progression:tb;baseline-shift:baseline;color:#000000;enable-background:accumulate;" d="m 47.259861,958.21475 c -3.642,0 -6.562,2.9515 -6.562,6.5938 0,3.6423 2.92,6.5937 6.562,6.5937 3.642,0 6.594,-2.9514 6.594,-6.5937 0,-3.6423 -2.952,-6.5938 -6.594,-6.5938 z m 6.094,12.5 c -0.693,0.032 -1.378,0.2216 -2.031,0.5625 -2.359,1.6037 -3.028,3.0261 -2.969,4.5 0.06,1.4836 0.929,3.0878 1.844,4.8438 2.097,4.0612 3.855,7.3926 5.937,11.375 0.138,0.1973 0.237,0.4379 -0.125,0.6562 l -5.875,3.1563 3.844,3.125 0.03,0.031 2.266,1.79285 c 0.675,-1.73065 1.747,-4.11825 1.984,-4.75585 0.678,-0.4655 0.104,-0.1808 0.375,0.2442 -0.264,0.7097 -1.158,2.9894 -1.907,4.90635 0,0.017 0,0.045 0,0.062 0,0.1101 -0.05,0.2032 -0.125,0.2812 -0.73,1.871 -1.687,4.2181 -2.437,6.5313 4.302,4.3388 5.654,5.1615 7.719,6.875 1.294,-1.5568 2.902,-3.973 4.25,-6 2.262,-3.5888 4.515,-8.0423 4.625,-11.18755 0.08,-2.2265 -0.828,-4.0587 -2.032,-6.125 -0.688,1.691 -1.399,3.4177 -2.125,5.1562 -1.129,2.7107 -0.885,5.50175 -2.312,8.12505 -0.437,1.5504 -2.263,1.5514 -1.5,-0.7187 l -0.969,1.6875 c -0.562,0.4943 -1.201,1.0019 -1.812,1.4687 -0.02,0.013 -0.04,0.021 -0.06,0.031 -0.277,0.2594 -1.121,0.483 -1.5,-0.2812 -0.543,0.3121 -0.98,0.4512 -1.438,-0.094 -0.159,-0.2809 -0.06,-0.6921 0.25,-1.0313 -0.141,-0.1067 -0.284,-0.2379 -0.312,-0.4062 -0.222,-0.7044 0.921,-1.5067 1.687,-2.25 0.261,-0.3238 0.543,-0.726 0.813,-1.2188 -0.742,0.5203 -1.95,1.3489 -2.594,0.3438 -0.462,-0.5902 2.359,-3.31205 3.594,-4.21885 1.068,-0.8282 2.061,-1.3089 2.687,-2.5312 l 1.969,-8.375 c -3.603,-2.5334 -9.945,-2.5797 -13.344,-6.4375 -1.317,-2.2164 0.405,-5.5386 2.157,-7.3438 1.167,-1.1639 2.341,-1.2167 3.562,-0.75 -1.163,-1.4283 -2.499,-2.081 -4.125,-2.0312 z m 2.719,2.4375 c -0.583,0.032 -1.168,0.2851 -1.719,0.9063 -1.14,0.9811 -3.255,4.8184 -1.969,6.375 3.216,3.5087 10.439,4.0673 13.344,6.375 0.115,0.083 0.158,0.2373 0.125,0.375 l -1.969,8.4687 c -0.437,1.5751 -2.484,2.635 -3.25,3.2813 -1.055,0.8858 -2.097,1.64855 -3.031,3.12505 0.943,0.1252 1.583,-0.8841 2.562,-1.125 0.274,-0.052 0.527,0.3287 0.375,0.5625 -0.367,0.6638 -0.767,1.5714 -1.343,2.25 -0.466,0.4561 -1.758,1.3771 -1.5,1.625 0.154,0.1204 0.193,-0.01 0.468,-0.25 0.439,-0.3729 0.879,-0.7464 1.313,-1.125 0.601,-0.7469 1.151,-1.6981 1.719,-2.375 0.288,-0.3676 0.774,-0.051 0.531,0.4375 -0.496,0.5916 -1.021,1.5541 -1.688,2.375 -0.741,0.629 -2.642,1.9563 -2.437,2.125 0.02,0 0.106,0.27 0.5,-0.125 0.743,-0.4506 2.171,-1.6788 2.219,-1.7188 l 1.593,-2.9062 c 0.254,-0.361 0.797,-0.2035 0.625,0.3125 l -1.656,3.0312 c -0.498,0.4225 -1.074,0.8642 -1.687,1.3125 -0.121,0.1069 -0.236,0.1963 -0.157,0.3438 0.08,0.1253 0.385,0.1059 0.563,-0.094 l 1.656,-1.3125 c 0.618,-1.0621 1.254,-2.1181 1.844,-3.1875 0.322,-0.4123 0.838,0 0.75,0.3125 -0.1,0.7729 -0.423,1.5821 -0.469,2.4062 1.472,-2.2005 1.437,-5.64135 2.531,-8.43755 1.26,-3.0613 2.868,-6.9413 4.125,-10.0937 0.44,-0.8599 0.05,-2.0095 -1.031,-2.5938 -3.787,-2.1117 -6.613,-6.6294 -10.25,-9.5625 -0.761,-0.5702 -1.717,-1.1474 -2.687,-1.0937 z m -7.5,6.0938 c -1.286,2.5533 -2.922,6.9296 -3.969,7.6875 -3.459,2.6281 -7.43,4.2372 -12.38,3.1651 -1.154,-0.1189 -2.12,0.09 -3.198,0.2558 -0.794,0.1742 -0.378,1.0314 0.328,0.7666 1.851,-0.3604 3.439,-0.2441 4.656,1.5625 0.155,0.2323 -0.01,0.6101 -0.281,0.6562 -0.562,0.08 -1.232,-0.3062 -1.906,-0.25 0.784,0.7325 2.939,1.2376 3.75,0.6563 3.902,-2.5088 11.114,-2.2702 13.48,-7.0093 l 1.671,-3.2497 c -0.585,-1.1411 -1.612,-3.097 -2.151,-4.241 z m -21.657,13.1875 c 0.353,0.7495 0.663,1.4814 0.907,2.25 0.681,0 1.32,0.02 1.875,0.062 l 0.281,-2.875 c -1.044,-0.4086 -2.237,0.071 -3.063,0.5625 z m 3.875,-0.6563 c -0.1,0 -0.21,0.021 -0.312,0.031 -0.05,0.9961 -0.164,2.006 -0.25,3 0.538,0.064 1.167,0.1587 1.812,0.2812 0.07,-0.2797 0.162,-0.5443 0.25,-0.8125 -0.421,-0.2069 -0.841,-0.4567 -1.218,-0.7187 -0.303,-0.2842 -0.397,-0.5644 -0.219,-0.9063 0.475,-0.3537 1.012,-0.5264 1.75,-0.3125 -0.545,-0.4939 -1.15,-0.5975 -1.813,-0.5625 z m -4.312,0.9687 c -0.673,0.5316 -1.222,1.216 -1.594,2 0.78,-0.033 1.554,-0.074 2.344,-0.062 -0.228,-0.698 -0.414,-1.2028 -0.75,-1.9375 z m 6.312,1.75 c -0.07,0.2433 -0.155,0.4746 -0.218,0.7188 1.36,0.2738 2.314,0.4793 2.781,0.5937 -0.04,-0.1718 -0.227,-0.5553 -0.375,-0.9062 -0.663,0.084 -1.418,-0.092 -2.188,-0.4063 z m -5.406,0.75 c -0.983,0 -1.677,0.01 -2.719,0.031 -0.798,1.8905 -0.417,3.537 0.688,5.09385 1.326,-1.45805 1.898,-2.45475 2.031,-5.12505 z m 0.531,0 c -0.03,1.9989 -0.356,3.4925 -2.187,5.56255 0.833,0.9556 1.97,1.6302 3.281,1.8438 l 0.656,-7.37505 c -0.49,-0.037 -1.131,-0.027 -1.75,-0.031 z m 2.282,0.094 -0.657,7.37505 c 1.967,-0.084 3.778,-0.8826 4.688,-2.0312 -1.298,-1.45055 -2.491,-2.93895 -2.313,-5.06255 -0.618,-0.1175 -1.213,-0.2198 -1.718,-0.2813 z m 2.25,0.4063 c -0.34,1.5051 0.904,3.2637 2.125,4.50005 0.642,-0.98535 1.029,-2.51305 0.875,-3.84385 -0.31,-0.076 -1.514,-0.3573 -3,-0.6562 z m 16.937,0.5312 c -2.293,1.5999 -5.741,4.37765 -7.906,6.18755 -0.425,0.3549 -0.701,0.9844 -0.75,1.5625 -0.548,3.4893 0.08,8.2143 0.25,12.5938 l 2.845,-0.1646 c 0.312,-3.3134 1.577,-7.3255 0.465,-11.0019 -0.07,-0.2244 0.191,-0.065 0.423,-0.1128 4.589,-1.0676 8.362,-2.7729 11.112,-3.875 l -2.345,-1.84575 z m 4.406,12.59385 c -2.02,3.9427 -3.28,8.3565 -5.343,12.375 -0.448,0.9469 -0.02,2.176 0.75,2.7812 0.01,0 0.02,-0.01 0.03,0 0.213,0.2116 0.462,0.4217 0.75,0.5938 l 18.156,11.125 1.531,-2.3438 c -4.07,-3.9882 -7.917,-9.4789 -14.094,-11.5312 -0.27,-0.1094 -0.353,-0.5366 -0.125,-0.7188 2.405,-1.8856 4.632,-4.1255 5.875,-5.625 -1.98,-1.6423 -3.439,-2.5565 -7.531,-6.6562 z m -9.959,8.25 -2.822,0.3437 c 0.05,0.7723 0.184,1.6872 -0.281,2.2188 -2.205,0.5899 -6.15,-0.035 -6.875,1 -0.271,0.2648 -0.286,0.4661 -0.219,0.6875 0.12,1.6385 8.597,1.0225 9.844,1.0937 0.512,-1.6516 0.931,-3.5076 0.353,-5.3437 z m 26.553,16.7187 -1.594,2.375 c 0.698,0.5672 2.455,1.8145 1.875,2.2813 -1.34,1.7324 -6.031,5.5842 -4.406,7.9062 0.586,0.2853 1.795,-2e-4 2.5,-0.8437 0.01,-0.01 0.02,-0.025 0.03,-0.031 2.33,-2.435 4.663,-4.8674 6.969,-7.3125 -0.05,-0.1226 -0.163,-0.3162 -0.344,-0.5625 -1.263,-1.6971 -2.928,-3.175 -5.031,-3.8125 z" fill="#000000" fill-opacity="1" stroke="none" marker="none" visibility="visible" display="inline" overflow="visible"/></g><text x="0" y="115" fill="#000000" font-size="5px" font-weight="bold" font-family="'Helvetica Neue', Helvetica, Arial-Unicode, Arial, Sans-serif">Created by Artdabana@Design</text><text x="0" y="120" fill="#000000" font-size="5px" font-weight="bold" font-family="'Helvetica Neue', Helvetica, Arial-Unicode, Arial, Sans-serif">from the Noun Project</text></svg>