<svg xmlns="http://www.w3.org/2000/svg" version="1.1" viewBox="-5.0 -10.0 110.0 135.0">
 <path d="m44.629 36.922c0-2.9609 2.4102-5.3711 5.3711-5.3711s5.3711 2.4102 5.3711 5.3711-2.4102 5.3711-5.3711 5.3711c-2.9609-0.003907-5.3711-2.4141-5.3711-5.3711zm19.109 9.2578-8.2383 5.1914c-1.7617 1.1094-2.0391 3.4688-1.4414 4.8086l6.3086 14.129c1.6914 3.75 6.8086 1.6797 5.3711-2l-3.5391-10.07c-0.23828-0.67188-0.42969-1.6484 0.21094-1.9414l6.8203-3.0781 9.0898 23.59c1.3984 3.4297 6.2812 1.9219 5.25-1.7383l-7.4492-26.441 2.1484-10.828 5.8711 12.461c1.4609 2.9219 5.5117 1.25 4.4219-1.8789l-5.2891-15.09c-0.46094-1.3281-1.4219-2.2695-2.7383-2.7305-5.3789-1.8711-7.7695-2.3086-12.391-5.6797-0.57031-0.42187-0.76953-1.1602-0.48047-1.8086l3.9492-8.8086c1.3906-3.0898-3.0586-5.1992-4.5586-2.1289l-5.3906 10.98c-0.85937 1.75-0.51953 3.7617 0.87109 5.1289l2.8789 2.8398c1.1602 1.1484 1.5898 2.7109 1.1797 4.2891zm14.152-19.73c2.5781 0 4.6797-2.1016 4.6797-4.6797s-2.1016-4.6797-4.6797-4.6797c-2.5703 0-4.6797 2.1016-4.6797 4.6797 0.007812 2.582 2.1094 4.6797 4.6797 4.6797zm-62.02 23.812 5.8711-12.461 2.1484 10.828-7.4492 26.441c-1.0312 3.6484 3.8516 5.1602 5.25 1.7383l9.0898-23.59 6.8203 3.0781c0.64844 0.28906 0.44922 1.2695 0.21094 1.9414l-3.5391 10.078c-1.4414 3.6719 3.6797 5.75 5.3711 2l6.3086-14.129c0.60156-1.3516 0.32031-3.6992-1.4414-4.8086l-8.2383-5.1914-2.8203-10.801c-0.41016-1.5781 0.019531-3.1406 1.1797-4.2891l2.8789-2.8398c1.3789-1.3711 1.7188-3.3789 0.87109-5.1289l-5.3906-10.98c-1.5117-3.0703-5.9492-0.96094-4.5586 2.1289l3.9492 8.8086c0.28906 0.64844 0.089844 1.3906-0.48047 1.8086-4.6211 3.3711-7.0117 3.8086-12.391 5.6797-1.3281 0.46094-2.2812 1.4102-2.7383 2.7305l-5.2891 15.09c-1.1328 3.1172 2.9141 4.7773 4.3867 1.8672zm6.2383-23.812c2.5781 0 4.6797-2.1016 4.6797-4.6797s-2.1016-4.6797-4.6797-4.6797c-2.5703 0-4.6797 2.1016-4.6797 4.6797 0 2.582 2.1016 4.6797 4.6797 4.6797zm66.629 60.391h-77.477c-0.69922 0-1.2617 0.57031-1.2617 1.2617 0 0.69922 0.57031 1.2617 1.2617 1.2617h77.469c0.69922 0 1.2617-0.57031 1.2617-1.2617 0.007812-0.70312-0.5625-1.2617-1.2539-1.2617z" fill-rule="evenodd"/>
<text x="0.0" y="117.5" font-size="5.0" font-weight="bold" font-family="Arbeit Regular, Helvetica, Arial-Unicode, Arial, Sans-serif" fill="#000000">Created by Mia Elysia</text><text x="0.0" y="122.5" font-size="5.0" font-weight="bold" font-family="Arbeit Regular, Helvetica, Arial-Unicode, Arial, Sans-serif" fill="#000000">from Noun Project</text></svg>